 <svg version="1.0" xmlns="http://www.w3.org/2000/svg"  width="300.000000pt" height="300.000000pt" viewBox="0 0 300.000000 300.000000"  preserveAspectRatio="xMidYMid meet">  <g transform="translate(0.000000,300.000000) scale(0.100000,-0.100000)" fill="#000000" stroke="none"> <path d="M1296 2414 c-329 -65 -620 -283 -766 -574 -46 -91 -84 -194 -78 -211 2 -7 17 23 32 67 211 601 899 890 1472 620 163 -77 301 -188 405 -325 57 -76 141 -237 166 -319 11 -37 18 -50 21 -36 4 25 -47 156 -90 234 -156 281 -438 484 -758 544 -101 19 -308 20 -404 0z"/> <path d="M1474 2322 c-16 -10 -34 -48 -34 -70 0 -11 9 -31 21 -46 57 -73 157 25 103 102 -15 22 -66 30 -90 14z m67 -36 c21 -46 -7 -95 -45 -80 -20 8 -30 58 -16 83 15 29 48 27 61 -3z"/> <path d="M1674 2305 c9 -25 -14 -115 -31 -115 -26 0 -12 -18 19 -24 33 -6 50 0 32 12 -8 5 -8 19 1 47 l11 40 15 -60 c20 -82 43 -86 60 -10 7 32 19 59 26 62 21 8 15 20 -16 31 -28 10 -28 10 -28 -30 0 -64 -18 -66 -32 -3 -7 30 -16 55 -21 55 -5 0 -16 3 -26 7 -14 5 -16 3 -10 -12z"/> <path d="M1269 2300 c-43 -25 -24 -123 26 -136 49 -12 104 31 76 59 -9 9 -13 6 -17 -10 -3 -12 -13 -24 -21 -27 -38 -15 -75 44 -53 84 11 20 50 28 50 10 0 -5 7 -10 16 -10 9 0 14 7 12 18 -4 20 -63 28 -89 12z"/> <path d="M1113 2252 c-19 -15 -21 -22 -13 -62 13 -67 13 -67 -29 -26 -32 31 -44 37 -65 32 -14 -3 -26 -13 -26 -22 0 -8 4 -12 10 -9 11 7 59 -85 53 -102 -6 -16 -1 -16 32 -1 26 12 34 28 13 28 -7 0 -23 16 -36 35 -29 45 -15 45 28 0 37 -38 65 -46 56 -17 -2 9 -7 37 -10 62 l-6 45 19 -40 c10 -22 16 -46 13 -52 -5 -16 0 -16 33 -1 26 12 34 28 12 28 -16 0 -62 84 -53 98 11 19 -9 21 -31 4z"/> <path d="M1903 2228 c5 -16 -29 -77 -55 -98 -18 -15 -17 -16 13 -34 32 -19 32 -19 27 2 -3 11 2 33 13 48 l18 28 3 -60 c4 -79 24 -82 62 -9 15 30 32 52 36 50 5 -3 11 -1 15 4 3 6 -8 17 -25 26 -29 15 -30 15 -30 -4 0 -23 -20 -71 -30 -71 -3 0 -5 25 -3 55 2 45 -1 56 -17 65 -25 13 -33 13 -27 -2z"/> <path d="M2100 2092 c0 -23 -65 -86 -79 -78 -27 17 -7 -17 31 -53 38 -35 44 -37 54 -23 14 20 9 33 -10 26 -7 -3 -19 2 -26 11 -10 12 -10 18 0 30 12 14 15 14 31 -1 10 -9 23 -13 29 -9 7 4 3 13 -11 24 -19 15 -20 18 -5 30 13 11 19 11 31 1 9 -7 14 -19 11 -26 -8 -20 10 -26 24 -8 11 12 7 21 -25 54 -43 44 -55 49 -55 22z"/> <path d="M840 2065 c-41 -34 -41 -35 -18 -44 31 -12 82 -67 74 -79 -14 -23 13 -20 34 3 13 14 20 26 17 26 -4 1 -11 2 -16 3 -6 0 -16 7 -22 14 -10 9 -10 15 -1 24 10 10 18 9 40 -4 36 -22 68 -7 37 16 -20 15 -32 20 -47 17 -5 0 -8 8 -8 19 0 16 -26 40 -43 40 -3 0 -24 -16 -47 -35z m66 -6 c3 -6 -1 -18 -9 -27 -13 -13 -19 -13 -32 -2 -12 10 -13 16 -4 26 14 17 35 18 45 3z"/> <path d="M1320 2060 c-174 -45 -341 -165 -440 -316 -49 -75 -95 -184 -88 -206 3 -7 11 5 18 27 27 87 94 197 162 270 327 350 885 296 1146 -110 15 -22 41 -76 60 -120 22 -52 31 -68 28 -45 -9 52 -67 167 -120 236 -93 124 -266 234 -423 268 -98 22 -249 20 -343 -4z"/> <path d="M2186 1909 c-36 -28 -36 -80 0 -108 20 -16 30 -18 40 -10 17 14 9 30 -11 23 -16 -6 -39 31 -31 51 3 8 19 21 35 30 29 14 32 14 51 -5 16 -16 19 -25 11 -34 -13 -16 -4 -27 15 -19 21 8 17 46 -6 71 -26 28 -69 28 -104 1z"/> <path d="M706 1903 c-4 -9 10 -37 34 -69 22 -29 40 -58 40 -64 0 -19 17 -10 28 14 9 21 8 25 -9 29 -18 5 -19 8 -7 26 14 23 34 27 41 9 3 -9 9 -7 20 7 15 19 13 40 -2 30 -5 -2 -38 4 -74 14 -58 17 -66 17 -71 4z m72 -32 c10 -6 10 -10 -2 -20 -12 -10 -17 -8 -26 8 -12 23 2 29 28 12z"/> <path d="M1144 1835 c-12 -18 -17 -43 -15 -78 2 -51 0 -54 -68 -137 -67 -82 -75 -100 -46 -100 12 0 15 -44 17 -260 l3 -260 -51 -10 c-28 -6 -69 -20 -90 -31 l-39 -19 310 4 c177 3 297 2 280 -3 -16 -5 -68 -10 -115 -11 -47 -1 -112 -6 -145 -10 -34 -4 114 -7 335 -7 217 0 386 1 375 4 -11 2 -54 7 -95 12 -62 7 -40 9 130 10 l205 1 -30 24 c-17 14 -50 27 -77 30 l-48 7 0 134 c0 81 4 142 11 153 8 13 5 39 -15 112 -24 89 -29 97 -88 157 -34 35 -70 63 -79 63 -11 0 -22 14 -30 37 -7 21 -36 62 -68 94 -66 66 -124 89 -220 89 -104 0 -208 -59 -260 -147 -18 -31 -32 5 -28 70 3 49 0 60 -19 78 l-22 21 -18 -27z m462 -44 c55 -25 111 -76 135 -122 37 -74 17 -83 -23 -10 -92 168 -331 175 -434 13 -19 -30 -30 -39 -35 -30 -17 27 53 107 125 143 63 32 169 34 232 6z m-15 -53 c36 -20 99 -80 99 -95 0 -7 -17 -17 -37 -22 -41 -11 -152 -37 -193 -45 -14 -3 -40 -9 -57 -15 -18 -5 -33 -8 -33 -6 0 2 -19 -2 -41 -10 -49 -17 -52 -18 -45 -6 8 13 -133 24 -199 16 l-57 -8 59 80 c65 88 80 93 33 10 l-30 -54 80 -7 c44 -3 87 -9 97 -13 16 -5 17 -4 3 10 -9 9 -37 21 -63 26 -26 5 -51 11 -54 14 -7 8 16 67 26 67 4 0 20 -13 36 -30 16 -16 35 -30 42 -30 8 0 36 24 63 54 35 36 65 58 98 70 53 18 136 16 173 -6z m110 -152 c-7 -8 -31 -18 -54 -21 -23 -4 -49 -11 -57 -17 -12 -7 -11 -8 5 -4 11 2 34 7 51 11 l30 6 -39 -84 -40 -84 -226 -48 c-124 -27 -237 -52 -250 -57 -13 -5 -26 -7 -28 -4 -3 2 28 44 67 93 88 108 108 118 349 178 204 50 208 50 192 31z m74 -6 c-22 -10 -46 -19 -53 -19 -6 -1 -31 -39 -54 -86 -23 -47 -46 -85 -50 -85 -5 0 12 40 37 89 41 82 47 90 87 104 60 21 81 19 33 -3z m-5 -39 c0 -6 -4 -13 -10 -16 -5 -3 -10 -41 -10 -83 0 -90 15 -122 59 -122 38 0 59 26 66 85 4 28 8 51 10 53 1 2 11 -14 22 -35 10 -21 27 -50 37 -66 13 -20 17 -38 13 -63 -8 -46 -15 -54 -31 -32 -16 22 -64 40 -86 33 -9 -3 -30 1 -46 10 -42 21 -79 19 -111 -9 -26 -23 -27 -27 -27 -122 0 -139 5 -186 22 -206 13 -16 13 -18 -1 -18 -10 0 -17 6 -17 13 0 7 -11 28 -25 47 -24 33 -25 39 -25 193 0 158 0 159 25 179 14 11 37 43 51 71 36 71 84 121 84 88z m-515 -23 c-11 -6 -41 -31 -67 -56 -41 -39 -48 -43 -48 -25 0 11 -9 32 -21 47 -11 14 -17 30 -14 36 3 5 43 10 88 10 65 -1 78 -3 62 -12z m585 -90 c0 -81 -4 -87 -44 -72 -13 5 -16 23 -16 89 l0 83 30 -11 c30 -11 30 -12 30 -89z m101 18 c5 -23 13 -49 16 -60 3 -11 1 -16 -5 -12 -5 3 -15 28 -22 55 -6 27 -20 57 -31 67 -10 9 -19 22 -19 27 0 25 51 -41 61 -77z m-840 27 c7 -61 3 -78 -18 -81 -21 -3 -23 1 -23 36 0 21 3 42 7 45 9 9 33 9 34 0z m479 -303 l0 -190 -47 0 -48 0 2 177 2 178 43 12 c24 6 44 11 46 12 1 1 2 -84 2 -189z m-112 113 c-3 -44 -5 -48 -30 -51 -27 -3 -28 -2 -28 42 0 44 7 54 43 55 15 1 18 -6 15 -46z m-78 -78 c0 -70 -4 -115 -10 -115 -5 0 -10 20 -10 45 0 56 -19 68 -111 69 -83 0 -99 -11 -99 -70 0 -33 -4 -44 -15 -44 -13 0 -15 14 -13 87 l3 87 125 27 c69 14 126 27 128 28 1 0 2 -51 2 -114z m376 78 l31 -5 -21 -54 c-12 -29 -24 -54 -27 -54 -3 0 -13 24 -23 53 -9 28 -20 58 -23 66 -4 11 -1 12 13 7 11 -4 33 -10 50 -13z m-49 -77 l23 -73 -24 -59 -25 -59 -3 133 c-2 72 -1 132 2 132 3 0 15 -33 27 -74z m-625 -18 c0 -90 -1 -98 -12 -98 -6 0 -10 37 -10 92 0 68 3 89 11 81 6 -6 11 -40 11 -75z m816 66 c2 -1 -5 -27 -16 -56 -13 -33 -22 -47 -26 -38 -12 31 -36 103 -36 107 0 4 72 -7 78 -13z m-109 -131 l0 -118 -21 64 c-19 63 -20 66 -2 118 10 29 19 53 21 53 2 0 3 -53 2 -117z m42 -61 l-19 -57 -1 120 0 120 20 -63 c20 -63 20 -64 0 -120z m-371 103 c0 -43 -1 -45 -30 -45 -28 0 -30 2 -30 39 0 39 8 49 43 50 14 1 17 -8 17 -44z m448 -107 l-3 -53 -18 53 c-18 50 -18 54 0 105 l18 52 3 -52 c2 -29 2 -77 0 -105z m-638 80 l0 -43 -50 0 -50 0 0 43 0 42 50 0 50 0 0 -42z m82 -55 c7 -4 22 -8 33 -8 16 0 21 -8 23 -39 5 -53 -2 -64 -32 -59 -23 5 -26 10 -26 44 0 21 -5 41 -10 44 -6 4 -8 11 -5 16 4 5 0 9 -8 9 -16 0 -30 38 -20 54 4 6 13 -4 20 -21 7 -17 18 -35 25 -40z m404 -25 c9 -29 19 -59 22 -65 3 -9 -10 -13 -46 -13 l-51 0 24 53 c14 28 25 58 25 65 0 24 9 11 26 -40z m-296 -18 c0 -33 -4 -60 -9 -60 -9 0 -20 108 -12 116 14 14 21 -3 21 -56z m421 -10 l16 -50 -40 0 c-27 0 -37 4 -33 13 2 6 10 29 17 50 7 20 15 37 18 37 3 0 13 -23 22 -50z m-693 -7 l3 -43 -49 0 c-27 0 -51 2 -53 4 -3 3 -3 23 -1 46 l4 41 47 -3 46 -3 3 -42z m130 0 l3 -43 -55 0 -56 0 0 38 c0 21 3 42 7 46 4 4 28 6 53 4 l45 -3 3 -42z m296 -57 c-4 -16 -13 -26 -24 -26 -31 0 -32 17 -4 39 32 25 37 23 28 -13z m-56 -23 c2 -9 -7 -13 -28 -13 -28 0 -31 2 -20 15 15 18 41 16 48 -2z"/> <path d="M2337 1763 c-12 -11 -8 -23 8 -23 8 0 15 -6 15 -13 0 -17 -92 -50 -101 -35 -12 19 -20 -9 -9 -36 10 -27 30 -36 30 -13 0 7 17 19 38 26 20 8 43 16 51 19 11 4 12 -1 7 -21 -5 -23 -3 -27 14 -27 25 0 25 5 -1 74 -20 52 -35 66 -52 49z"/> <path d="M607 1711 c-21 -61 -21 -58 6 -59 30 0 97 -28 97 -41 0 -22 18 -10 28 19 9 25 8 29 -6 28 -44 -3 -53 1 -42 21 13 25 13 41 0 41 -6 0 -15 -11 -20 -25 -6 -16 -14 -23 -25 -19 -22 9 -18 41 6 55 17 9 19 13 8 20 -26 16 -34 9 -52 -40z"/> <path d="M1828 738 c14 -14 16 -108 2 -108 -5 0 -10 -4 -10 -10 0 -5 14 -10 30 -10 17 0 30 5 30 10 0 6 -5 10 -11 10 -7 0 -10 21 -7 60 3 58 2 60 -21 60 -20 0 -22 -3 -13 -12z"/> <path d="M852 728 c-21 -21 -13 -38 23 -55 19 -9 35 -23 35 -30 0 -18 -37 -16 -44 2 -8 21 -26 19 -26 -4 0 -30 63 -44 88 -19 20 20 14 38 -23 59 -19 12 -35 25 -35 30 0 14 48 11 53 -3 2 -7 8 -10 12 -6 4 4 5 14 2 23 -8 18 -67 21 -85 3z"/> <path d="M1698 728 c14 -14 16 -98 2 -98 -5 0 -10 -4 -10 -10 0 -5 14 -10 30 -10 29 0 41 15 18 22 -21 7 -1 37 21 31 15 -4 21 -1 21 11 0 10 -9 16 -25 16 -16 0 -25 6 -25 15 0 9 9 15 25 15 14 0 25 -4 25 -10 0 -5 5 -10 10 -10 6 0 10 9 10 20 0 18 -7 20 -57 20 -44 0 -54 -3 -45 -12z"/> <path d="M977 718 c-2 -7 -1 -33 2 -58 5 -37 10 -46 29 -48 12 -2 22 1 22 7 0 6 -4 11 -10 11 -15 0 -12 58 2 62 9 3 8 9 -4 21 -20 20 -34 22 -41 5z"/> <path d="M1072 698 c-15 -15 -15 -61 0 -76 38 -38 93 12 70 63 -13 27 -49 34 -70 13z m43 -38 c0 -13 -6 -25 -12 -27 -16 -6 -27 21 -19 43 9 23 31 11 31 -16z"/> <path d="M1185 660 c0 -45 2 -50 22 -50 20 0 22 4 16 31 -4 24 -2 34 10 41 27 15 20 28 -15 28 -33 0 -33 0 -33 -50z"/> <path d="M1287 703 c-15 -14 -6 -23 18 -17 15 4 25 2 25 -5 0 -6 -6 -11 -13 -11 -24 0 -48 -25 -42 -42 5 -12 19 -16 49 -16 l42 0 -4 36 c-3 21 -9 43 -14 50 -11 13 -50 17 -61 5z"/> <path d="M1398 685 c-17 -37 4 -79 36 -73 18 4 23 1 19 -9 -3 -8 -13 -13 -23 -11 -9 2 -19 -1 -21 -7 -6 -15 40 -18 57 -5 9 8 14 32 14 70 l0 57 -35 1 c-29 1 -38 -3 -47 -23z m57 -25 c0 -27 -22 -39 -31 -16 -8 22 3 49 19 43 6 -2 12 -14 12 -27z"/> <path d="M1532 698 c-7 -7 -12 -24 -12 -38 0 -14 5 -31 12 -38 15 -15 54 -16 63 -2 3 6 -5 10 -19 10 -14 0 -28 5 -31 10 -4 6 7 10 24 10 23 0 31 5 31 18 0 22 -19 42 -40 42 -9 0 -21 -5 -28 -12z"/> <path d="M1908 685 c-16 -36 3 -75 37 -75 15 0 31 9 41 25 15 23 15 27 0 50 -10 16 -26 25 -41 25 -17 0 -29 -8 -37 -25z m57 -25 c0 -27 -22 -39 -31 -16 -8 22 3 49 19 43 6 -2 12 -14 12 -27z"/> <path d="M2020 701 c0 -6 4 -12 9 -15 5 -3 12 -22 15 -41 9 -44 31 -45 41 -2 l7 32 10 -33 c5 -18 14 -32 20 -30 8 3 37 74 38 96 0 1 -9 2 -20 2 -16 0 -19 -5 -14 -24 3 -13 1 -26 -4 -30 -5 -3 -12 8 -16 24 -6 32 -26 41 -26 13 0 -10 -5 -25 -11 -33 -8 -12 -9 -7 -6 18 3 28 1 32 -20 32 -13 0 -23 -4 -23 -9z"/> <path d="M653 683 c26 -2 68 -2 95 0 26 2 4 3 -48 3 -52 0 -74 -1 -47 -3z"/> <path d="M2230 680 c0 -6 35 -10 84 -10 47 0 88 5 91 10 4 6 -27 10 -84 10 -54 0 -91 -4 -91 -10z"/> <path d="M653 633 c26 -2 68 -2 95 0 26 2 4 3 -48 3 -52 0 -74 -1 -47 -3z"/> <path d="M2273 633 c26 -2 68 -2 95 0 26 2 4 3 -48 3 -52 0 -74 -1 -47 -3z"/> </g> </svg> 